<svg width="686" height="657" viewBox="0 0 686 657" fill="none" xmlns="http://www.w3.org/2000/svg">
<path d="M392.713 102.447C403.19 70.2009 448.81 70.2009 459.287 102.447L513.785 270.174C518.471 284.595 531.909 294.359 547.072 294.359L723.431 294.359C757.336 294.359 771.434 337.745 744.004 357.674L601.326 461.336C589.059 470.248 583.926 486.046 588.612 500.467L643.11 668.194C653.587 700.44 616.68 727.255 589.25 707.326L446.572 603.664C434.305 594.752 417.695 594.752 405.428 603.664L262.75 707.326C235.32 727.255 198.413 700.44 208.89 668.194L263.388 500.467C268.074 486.046 262.941 470.248 250.674 461.336L107.996 357.674C80.5664 337.745 94.6635 294.359 128.569 294.359L304.928 294.359C320.091 294.359 333.529 284.595 338.215 270.174L392.713 102.447Z" transform="translate(-83 -68)" stroke="#333333" stroke-width="20"/>
</svg>
