<svg width="852" height="852" viewBox="0 0 852 852" fill="none" xmlns="http://www.w3.org/2000/svg">
<path d="M527.826 264.848L474.504 100.739C459.237 53.7517 392.763 53.7517 377.496 100.739L324.174 264.848C321.362 273.501 313.299 279.359 304.202 279.359H131.647C82.2416 279.359 61.7001 342.579 101.669 371.619L241.269 473.044C248.63 478.391 251.709 487.87 248.898 496.523L195.576 660.632C180.309 707.619 234.087 746.691 274.057 717.652L413.657 616.227C421.017 610.879 430.983 610.879 438.344 616.227L577.943 717.652C617.913 746.691 671.691 707.619 656.424 660.632L603.102 496.523C600.291 487.87 603.37 478.391 610.731 473.044L750.331 371.619C790.3 342.579 769.758 279.359 720.353 279.359H547.799C538.701 279.359 530.638 273.501 527.826 264.848Z" fill="#F2B006" stroke="#E0E0E0" stroke-width="30"/>
<path d="M448.35 109.237L501.672 273.346C508.165 293.329 526.787 306.859 547.799 306.859H720.353C743.118 306.859 752.584 335.99 734.166 349.371L594.567 450.796C577.568 463.146 570.455 485.037 576.948 505.021L630.27 669.13C637.305 690.781 612.525 708.785 594.107 695.404L454.508 593.979C437.509 581.628 414.491 581.628 397.492 593.979L257.893 695.404C239.475 708.785 214.695 690.781 221.73 669.13L275.052 505.021C281.545 485.037 274.432 463.146 257.433 450.796L117.834 349.371C99.4163 335.99 108.882 306.859 131.647 306.859H304.202C325.213 306.859 343.835 293.329 350.328 273.346L403.65 109.237C410.685 87.5857 441.315 87.5857 448.35 109.237Z" stroke="#E0E0E0" stroke-width="25"/>
<path d="M392.713 102.447C403.19 70.2009 448.81 70.2009 459.287 102.447L513.785 270.174C518.471 284.595 531.909 294.359 547.072 294.359L723.431 294.359C757.336 294.359 771.434 337.745 744.004 357.674L601.326 461.336C589.059 470.248 583.926 486.046 588.612 500.467L643.11 668.194C653.587 700.44 616.68 727.255 589.25 707.326L446.572 603.664C434.305 594.752 417.695 594.752 405.428 603.664L262.75 707.326C235.32 727.255 198.413 700.44 208.89 668.194L263.388 500.467C268.074 486.046 262.941 470.248 250.674 461.336L107.996 357.674C80.5664 337.745 94.6635 294.359 128.569 294.359L304.928 294.359C320.091 294.359 333.529 284.595 338.215 270.174L392.713 102.447Z" stroke="#333333" stroke-width="20"/>
</svg>
